<?xml version="1.0" encoding="utf-8"?>
<!-- Generator: Adobe Illustrator 23.1.1, SVG Export Plug-In . SVG Version: 6.00 Build 0)  -->
<svg version="1.1" id="Layer_1" xmlns="http://www.w3.org/2000/svg" xmlns:xlink="http://www.w3.org/1999/xlink" x="0px" y="0px"
	 viewBox="0 0 522.2 203.82" style="enable-background:new 0 0 522.2 203.82;" xml:space="preserve">
<style type="text/css">
	.st0{fill:#F41626;}
	.st1{fill:#FFFFFF;}
</style>
<rect class="st0" width="522.2" height="203.82"/>
<g>
	<g>
		<path class="st1" d="M44.39,88.57h7.63V75.77h4.1v12.79h9.76v3.85h-9.76v26.65c0,4.59,0.98,7.22,4.92,7.22
			c1.23,0,2.95-0.08,4.26-0.49v3.61c-1.39,0.57-3.36,0.74-5.08,0.74c-5.25,0-8.2-2.62-8.2-9.18V92.42h-7.63V88.57z"/>
		<path class="st1" d="M102.36,121.78c0,3.61,0.33,6.48,0.57,7.79H99c-0.33-0.98-0.57-2.79-0.74-6.31c-1.39,3.03-5,7.3-13.45,7.3
			c-9.51,0-13.61-6.15-13.61-12.3c0-9.02,6.97-13.12,19.27-13.12c3.44,0,6.15,0,7.79,0v-4.18c0-4.1-1.23-9.59-10.58-9.59
			c-8.28,0-9.51,4.35-10.41,7.71h-4.1c0.49-4.51,3.28-11.48,14.6-11.48c9.35,0,14.6,3.94,14.6,12.96V121.78z M98.34,108.66
			c-1.56,0-5.33,0-8.04,0c-9.1,0-14.76,2.38-14.76,9.43c0,5.17,3.69,8.69,9.43,8.69c11.73,0,13.37-7.79,13.37-16.65V108.66z"/>
		<path class="st1" d="M115.89,118.25c1.39,5.33,5.17,8.53,11.64,8.53c7.3,0,10.25-3.36,10.25-7.95c0-4.67-1.97-6.97-11.15-9.18
			c-10.58-2.54-13.2-5.74-13.2-11.15c0-5.66,4.26-10.91,13.53-10.91c9.27,0,13.69,5.66,14.35,11.48h-4.1
			c-0.74-3.44-3.44-7.71-10.41-7.71c-7.13,0-9.18,3.53-9.18,6.81c0,3.77,1.97,5.66,10.09,7.63c11.56,2.79,14.43,6.56,14.43,12.71
			c0,7.46-6.07,12.05-14.68,12.05c-9.35,0-14.6-4.92-15.74-12.3H115.89z"/>
		<path class="st1" d="M146.15,88.57h7.63V75.77h4.1v12.79h9.76v3.85h-9.76v26.65c0,4.59,0.98,7.22,4.92,7.22
			c1.23,0,2.95-0.08,4.26-0.49v3.61c-1.39,0.57-3.36,0.74-5.08,0.74c-5.25,0-8.2-2.62-8.2-9.18V92.42h-7.63V88.57z"/>
		<path class="st1" d="M176.89,109.56c0.08,10.58,5.41,17.14,13.28,17.14c7.71,0,10.33-4.35,11.81-7.71h4.18
			c-1.72,5.41-6.07,11.56-16.15,11.56c-12.46,0-17.3-10.74-17.3-21.16c0-11.73,5.82-21.81,17.79-21.81
			c12.63,0,16.65,10.91,16.65,18.61c0,1.15,0,2.3-0.08,3.36H176.89z M202.89,105.95c-0.08-8.12-4.51-14.51-12.55-14.51
			c-8.45,0-12.3,5.9-13.2,14.51H202.89z"/>
		<path class="st1" d="M229.39,73.03v56.53h-12.22V73.03H229.39z"/>
		<path class="st1" d="M241.45,97.82c0-3.61,0-7.56-0.08-10.69h11.38c0.24,1.1,0.39,4.04,0.45,5.41c1.44-2.67,4.88-6.39,12.31-6.39
			c8.53,0,14.07,5.76,14.07,16.43v27h-11.75v-25.7c0-4.77-1.59-8.23-6.78-8.23c-4.99,0-7.85,2.78-7.85,10.27v23.65h-11.75V97.82z"/>
		<path class="st1" d="M323.59,103.85c0-10.96,0.16-21.14,0.33-26.73h-0.09c-2.13,9.05-8.45,35.05-13.42,52.45h-3.88
			c-3.75-14.4-10.4-42.51-12.6-52.53h-0.17c0.33,6.48,0.57,19.16,0.57,28.68v23.85h-3.65V73.73h5.46
			c5.52,18.86,11.03,43.75,12.5,50.5h0.08c0.99-5.06,7.64-32.29,13.08-50.5h5.53v55.84h-3.74V103.85z"/>
		<path class="st1" d="M367.65,101.12c0,18.17-3.89,29.19-15.48,29.19c-11.17,0-15.23-10.54-15.23-28.95
			c0-18.32,4.8-28.37,15.4-28.37C363.51,72.99,367.65,82.49,367.65,101.12z M340.77,101.19c0,17.61,3.97,25.73,11.56,25.73
			c7.75,0,11.48-8.1,11.48-25.56c0-18.33-4.05-24.97-11.56-24.97C344.9,76.38,340.77,84.24,340.77,101.19z"/>
		<path class="st1" d="M385.97,129.57L372.2,73.73h3.92l6.85,28.27c1.96,8.02,4.48,18.71,5.22,23.73h0.16
			c0.74-4.29,3.83-15.62,5.95-23.8l7.25-28.19h3.76l-14.66,55.84H385.97z"/>
		<path class="st1" d="M415.79,73.73v55.84h-3.67V73.73H415.79z"/>
		<path class="st1" d="M450.44,101.52h-19.08v24.66h21.05l-0.59,3.39H427.7V73.73h23.72v3.4h-20.06v20.99h19.08V101.52z"/>
		<path class="st1" d="M460,115.51c0.41,6.44,3.74,11.34,10.51,11.34c6.44,0,10.09-3.28,10.09-11.15c0-6.68-2.46-10.1-10.39-13.95
			c-8.23-3.95-12.16-7.73-12.16-15.69c0-6.85,4.38-13,12.86-13c9.66,0,12.45,7.24,12.62,13.34h-3.66c-0.25-2.4-1.07-9.96-9.2-9.96
			c-6.26,0-8.87,4.39-8.87,9.28c0,6.18,2.77,9.11,10.05,12.63c9.6,4.67,12.59,9.42,12.59,17.08c0,8.85-4.69,14.79-14.01,14.79
			c-10.14,0-13.68-6.76-14.17-14.72H460z"/>
	</g>
</g>
</svg>
